# xmcd CD database file
#
# Track frame offsets:
#	150
#	12166
#	22382
#	32708
#	48027
#	60031
#	73308
#	89229
#	98294
#	113441
#	123398
#	139499
#	152901
#	162764
#
# Disc length: 2356 seconds
#
# Revision: 1
# Processed by: cddbd v1.5.2PL0 Copyright (c) Steve Scherf et al.
# Submitted via: CDex 1.70beta2
#
DISCID=b309320e
DTITLE=Žraloci z Chocerad - Trampské písně z krčmy U Žraloka 2
DYEAR=1900
DGENRE=Country
TTITLE0=Sešla se ta stará parta
TTITLE1=Svatojánská muška
TTITLE2=Po kolena v bahně
TTITLE3=Už nás táborák volá
TTITLE4=Vodník
TTITLE5=Když člověk přichází do let
TTITLE6=Hrozná cesta
TTITLE7=Ať žije kapitán
TTITLE8=Plavý vlasy
TTITLE9=Flamendr
TTITLE10=Mořskej vlk
TTITLE11=Shorty a Joe
TTITLE12=Kapitánka
TTITLE13=Březen
EXTD=
EXTT0=
EXTT1=
EXTT2=
EXTT3=
EXTT4=
EXTT5=
EXTT6=
EXTT7=
EXTT8=
EXTT9=
EXTT10=
EXTT11=
EXTT12=
EXTT13=
PLAYORDER=
